<svg width="359" height="222" viewBox="0 0 359 222" fill="none" xmlns="http://www.w3.org/2000/svg">
<path d="M56.1478 222H5.49908L14.3826 218.665H65.0313L56.1478 222Z" fill="#E8E9EA"/>
<path d="M147.825 222H97.1761L106.06 218.665H156.708L147.825 222Z" fill="#E8E9EA"/>
<path d="M239.502 222H188.853L197.737 218.665H248.386L239.502 222Z" fill="#E8E9EA"/>
<path d="M331.179 222H280.53L289.414 218.665H340.063L331.179 222Z" fill="#E8E9EA"/>
<g opacity="0.6">
<path d="M33.6611 170.696C33.6611 170.696 43.5211 130.603 97.8666 128.026C152.212 125.449 147.69 99.9097 172.781 55.6354C194.628 17.0829 240.708 9.18162 275.343 28.9316C309.977 48.6816 339.663 101.606 336.67 180.09H33.6611V170.696Z" fill="#263238"/>
<path d="M29.4141 124.197C29.4141 124.197 32.5805 64.2382 82.801 30.2689C133.022 -3.70045 164.089 32.8812 168.7 84.1088C173.31 135.336 213.257 129.523 270.785 111.822C333.479 92.5314 337.998 183.612 337.998 183.612H27.4606L29.4141 124.197Z" fill="#263238"/>
</g>
<path d="M140.969 78.3263H113.238V197.262H140.969V78.3263Z" fill="#263238"/>
<path d="M196.432 127.644H168.7V197.262H196.432V127.644Z" fill="#263238"/>
<path d="M192.351 92.8343H172.781V127.644H192.351V92.8343Z" fill="#263238"/>
<path d="M187.831 72.1784H177.3V92.8343H187.831V72.1784Z" fill="#263238"/>
<path d="M184.545 51.523H180.587V72.1789H184.545V51.523Z" fill="#263238"/>
<path d="M168.701 197.262H140.969V162.453L168.701 153.527V197.262Z" fill="#263238"/>
<path d="M137.091 78.3263H117.116V63.1548L137.091 78.3263Z" fill="#263238"/>
<path d="M238.777 169.962H196.431V197.262H238.777V169.962Z" fill="#263238"/>
<path d="M217.604 169.962H199.91V155.171L217.604 162.453V169.962Z" fill="#263238"/>
<path d="M279.862 101.76H238.777V197.262H279.862V101.76Z" fill="#263238"/>
<path d="M275.343 76.287H243.296V101.76H275.343V76.287Z" fill="#263238"/>
<path d="M271.646 68.0703V76.287H260.553L271.646 68.0703Z" fill="#263238"/>
<path d="M320.126 197.262H279.862V130.931L299.994 146.954H320.126V197.262Z" fill="#263238"/>
<path d="M346.831 100.954H320.126V197.262H346.831V100.954Z" fill="#263238"/>
<path d="M42.3894 113.2L15.684 100.954V197.262H42.3894V113.2Z" fill="#263238"/>
<path d="M341.901 84.1087H325.056V100.954H341.901V84.1087Z" fill="#263238"/>
<path d="M339.984 59.0419H337.998V84.1093H339.984V59.0419Z" fill="#263238"/>
<path d="M113.238 145.721H67.8623V197.262H113.238V145.721Z" fill="#263238"/>
<path d="M42.3894 167.086L67.8623 158.458V197.262H42.3894V167.086Z" fill="#263238"/>
<path d="M93.1299 137.794H71.9711V145.721H93.1299V137.794Z" fill="#263238"/>
<path d="M90.5501 130.931H75.0526V137.794H90.5501V130.931Z" fill="#263238"/>
<path d="M15.6841 181.578H0.000106335V197.262H15.6841V181.578Z" fill="#263238"/>
<path d="M91.2074 197.367H16.4103C13.6974 197.367 11.498 195.168 11.498 192.455V52.5674C11.498 49.8545 13.6974 47.6551 16.4103 47.6551H91.2074C93.9203 47.6551 96.1197 49.8545 96.1197 52.5674V192.454C96.1202 195.168 93.9208 197.367 91.2074 197.367Z" fill="#3C4652"/>
<path d="M88.219 52.2978H69.4576C66.3981 52.2978 63.6141 54.0669 62.3148 56.8367C61.6417 58.2719 60.1991 59.1884 58.6138 59.1884H52.2362C50.6509 59.1884 49.2083 58.2719 48.5352 56.8362C47.2359 54.0664 44.4524 52.2973 41.3924 52.2973H19.3988C18.1352 52.2973 17.1109 53.3217 17.1109 54.5852V190.436C17.1109 191.699 18.1352 192.723 19.3988 192.723H88.2185C89.482 192.723 90.5064 191.699 90.5064 190.436V54.5857C90.5069 53.3222 89.4825 52.2978 88.219 52.2978Z" fill="white"/>
<path d="M57.0394 53.4823C57.0394 54.3745 56.3163 55.0976 55.4241 55.0976C54.5319 55.0976 53.8088 54.3745 53.8088 53.4823C53.8088 52.5901 54.5319 51.8669 55.4241 51.8669C56.3163 51.8669 57.0394 52.5901 57.0394 53.4823Z" fill="#0F1B31"/>
<path d="M90.5069 73.8659H17.1108V161.692H90.5069V73.8659Z" fill="#263238"/>
<path d="M67.3504 183.564H38.9081C38.1823 183.564 37.594 182.976 37.594 182.25V175.893C37.594 175.168 38.1823 174.579 38.9081 174.579H67.3504C68.0762 174.579 68.6645 175.168 68.6645 175.893V182.25C68.6645 182.976 68.0762 183.564 67.3504 183.564Z" fill="#263238"/>
<path d="M43.1713 180.589V176.79H44.4548C44.7528 176.79 44.9964 176.844 45.1856 176.951C45.376 177.058 45.517 177.202 45.6085 177.384C45.7 177.565 45.7458 177.768 45.7458 177.992C45.7458 178.216 45.7 178.419 45.6085 178.602C45.5182 178.785 45.3785 178.931 45.1893 179.04C45.0001 179.148 44.7577 179.201 44.4622 179.201H43.5422V178.793H44.4474C44.6514 178.793 44.8152 178.758 44.9389 178.688C45.0626 178.617 45.1522 178.522 45.2079 178.402C45.2647 178.281 45.2932 178.144 45.2932 177.992C45.2932 177.84 45.2647 177.704 45.2079 177.584C45.1522 177.464 45.0619 177.37 44.937 177.302C44.8122 177.233 44.6465 177.198 44.44 177.198H43.6312V180.589H43.1713ZM46.9468 176.79V180.589H46.4868V176.79H46.9468ZM50.9258 177.977H50.4658C50.4386 177.845 50.391 177.729 50.323 177.628C50.2562 177.528 50.1746 177.444 50.0782 177.376C49.983 177.307 49.8772 177.255 49.761 177.22C49.6448 177.186 49.5236 177.168 49.3974 177.168C49.1674 177.168 48.9591 177.227 48.7724 177.343C48.5869 177.459 48.4391 177.63 48.3291 177.857C48.2202 178.083 48.1658 178.36 48.1658 178.689C48.1658 179.018 48.2202 179.296 48.3291 179.522C48.4391 179.749 48.5869 179.92 48.7724 180.036C48.9591 180.152 49.1674 180.21 49.3974 180.21C49.5236 180.21 49.6448 180.193 49.761 180.158C49.8772 180.124 49.983 180.072 50.0782 180.004C50.1746 179.935 50.2562 179.851 50.323 179.75C50.391 179.649 50.4386 179.533 50.4658 179.402H50.9258C50.8912 179.596 50.8281 179.77 50.7366 179.923C50.6451 180.076 50.5314 180.207 50.3953 180.314C50.2593 180.421 50.1066 180.502 49.9372 180.557C49.769 180.613 49.5891 180.641 49.3974 180.641C49.0735 180.641 48.7854 180.562 48.5331 180.403C48.2808 180.245 48.0824 180.02 47.9377 179.728C47.793 179.436 47.7207 179.09 47.7207 178.689C47.7207 178.289 47.793 177.943 47.9377 177.651C48.0824 177.359 48.2808 177.134 48.5331 176.976C48.7854 176.817 49.0735 176.738 49.3974 176.738C49.5891 176.738 49.769 176.766 49.9372 176.822C50.1066 176.877 50.2593 176.959 50.3953 177.066C50.5314 177.173 50.6451 177.303 50.7366 177.456C50.8281 177.608 50.8912 177.782 50.9258 177.977ZM51.6691 180.589V176.79H52.1291V178.675H52.1737L53.8801 176.79H54.4811L52.8859 178.504L54.4811 180.589H53.9246L52.604 178.823L52.1291 179.357V180.589H51.6691ZM59.0384 176.79H59.4984V179.305C59.4984 179.565 59.4372 179.797 59.3147 180.001C59.1936 180.204 59.0223 180.364 58.801 180.481C58.5796 180.597 58.3199 180.656 58.0219 180.656C57.7239 180.656 57.4642 180.597 57.2429 180.481C57.0216 180.364 56.8497 180.204 56.7273 180.001C56.6061 179.797 56.5455 179.565 56.5455 179.305V176.79H57.0055V179.268C57.0055 179.454 57.0463 179.619 57.1279 179.763C57.2095 179.907 57.3258 180.02 57.4766 180.103C57.6287 180.184 57.8105 180.225 58.0219 180.225C58.2334 180.225 58.4152 180.184 58.5672 180.103C58.7193 180.02 58.8356 179.907 58.916 179.763C58.9976 179.619 59.0384 179.454 59.0384 179.268V176.79ZM60.417 180.589V176.79H61.7005C61.9985 176.79 62.2421 176.844 62.4313 176.951C62.6217 177.058 62.7627 177.202 62.8542 177.384C62.9457 177.565 62.9915 177.768 62.9915 177.992C62.9915 178.216 62.9457 178.419 62.8542 178.602C62.764 178.785 62.6242 178.931 62.435 179.04C62.2458 179.148 62.0035 179.201 61.7079 179.201H60.7879V178.793H61.6931C61.8971 178.793 62.061 178.758 62.1846 178.688C62.3083 178.617 62.3979 178.522 62.4536 178.402C62.5105 178.281 62.5389 178.144 62.5389 177.992C62.5389 177.84 62.5105 177.704 62.4536 177.584C62.3979 177.464 62.3077 177.37 62.1828 177.302C62.0579 177.233 61.8922 177.198 61.6857 177.198H60.877V180.589H60.417Z" fill="white"/>
<path d="M25.4604 73.8659V87.2515H53.1291V98.7958" stroke="#D4EAA4" stroke-width="2.6334" stroke-miterlimit="10"/>
<path d="M49.7903 118.634H35.0064C29.0918 118.634 24.2974 123.429 24.2974 129.343C24.2974 135.257 29.0923 140.052 35.0064 140.052C36.0935 140.052 36.9746 140.933 36.9746 142.02V161.692" stroke="#D4EAA4" stroke-width="2.6334" stroke-miterlimit="10"/>
<path d="M35.0064 140.052H41.5483C42.6354 140.052 43.5165 140.933 43.5165 142.02V161.692" stroke="#D4EAA4" stroke-width="2.6334" stroke-miterlimit="10"/>
<path d="M53.129 124.092V153.746H84.2V161.692" stroke="#D4EAA4" stroke-width="2.6334" stroke-miterlimit="10"/>
<path d="M90.507 138.999H74.1931V105.357C74.1931 95.3576 66.0869 87.2515 56.0879 87.2515H53.129" stroke="#D4EAA4" stroke-width="2.6334" stroke-miterlimit="10"/>
<path d="M84.2 73.8659V114.085C84.2 119.611 79.7195 124.092 74.1931 124.092" stroke="#D4EAA4" stroke-width="2.6334" stroke-miterlimit="10"/>
<path d="M52.9494 96.5384C43.2105 96.6843 37.851 107.983 43.6745 115.789L51.3757 126.112C52.2578 127.294 54.0296 127.294 54.9118 126.112L62.7251 115.638C68.6455 107.702 62.9057 96.3894 52.9494 96.5384ZM53.81 113.125C50.4566 113.548 47.6367 110.728 48.0591 107.374C48.3472 105.089 50.1922 103.244 52.4769 102.956C55.8308 102.533 58.6512 105.354 58.2283 108.707C57.9402 110.992 56.0952 112.837 53.81 113.125Z" fill="white"/>
<path d="M90.5069 161.692H17.1108V164.806H90.5069V161.692Z" fill="#FF715E"/>
<path d="M90.5069 70.7527H17.1109V73.8664H90.5069V70.7527Z" fill="#FF715E"/>
<path d="M96.1203 207.005C96.1203 207.9 76.9001 208.626 53.1911 208.626C29.482 208.626 10.2619 207.9 10.2619 207.005C10.2619 206.11 29.482 205.384 53.1911 205.384C76.9001 205.384 96.1203 206.11 96.1203 207.005Z" fill="#E8E9EA"/>
<path d="M351.957 207.005C351.957 207.9 332.737 208.626 309.028 208.626C285.319 208.626 266.098 207.9 266.098 207.005C266.098 206.11 285.319 205.384 309.028 205.384C332.737 205.384 351.957 206.11 351.957 207.005Z" fill="#E8E9EA"/>
<path d="M303.764 198.537C303.764 198.537 304.025 198.244 304.315 199.331C304.605 200.418 304.524 204.918 303.764 205.818C303.005 206.718 284.707 208.317 284.006 206.517C283.371 204.89 298.106 196.788 298.106 196.788L303.764 198.537Z" fill="#021B2D"/>
<path d="M331.82 197.136C331.82 197.136 332.326 197.205 332.733 198.255C333.139 199.304 333.892 205.085 333.234 206.062C332.577 207.039 313.967 207.776 313.074 206.062C312.267 204.513 326.051 197.668 326.051 197.668L331.82 197.136Z" fill="#021B2D"/>
<path d="M297.441 194.353L297.118 197.938C297.118 197.938 299.856 200.168 303.765 198.537L304.088 194.952L297.441 194.353Z" fill="#F4C6BA"/>
<path d="M324.745 195.378L325.356 198.926C325.356 198.926 328.576 200.375 331.933 197.792L331.322 194.245L324.745 195.378Z" fill="#F4C6BA"/>
<path d="M317.569 134.605C317.569 134.605 313.705 163.321 307.106 169.119C300.041 175.326 295.905 165.72 296.514 160.321C296.787 157.924 297.6 152.177 298.425 146.526C298.893 143.334 299.361 140.172 299.736 137.662C300.192 134.611 300.507 132.523 300.507 132.523L317.569 134.605Z" fill="#002545"/>
<path d="M302.105 138.775C302.105 138.775 302.024 144.942 298.425 146.526C298.893 143.334 299.361 140.173 299.736 137.662L302.105 138.775Z" fill="#021B2D"/>
<path d="M296.515 160.32C296.515 160.32 296.005 189.419 296.456 195.019C296.456 195.019 303.105 197.018 305.105 195.019L312.36 158.841C312.36 158.841 302.923 150.219 296.515 160.32Z" fill="#002545"/>
<path d="M330.296 147.771C330.185 157.283 328.811 169.422 322.65 170.535C314.976 171.918 312.706 159.877 312.36 136.625L329.891 136.282C329.891 136.282 329.942 136.84 330.011 137.812C330.146 139.8 330.347 143.523 330.296 147.771Z" fill="#002545"/>
<path d="M329.595 157.925L332.303 195.243C332.303 195.243 326.355 197.466 323.8 195.907L315.297 164.778C315.297 164.778 321.888 153.055 329.595 157.925Z" fill="#002545"/>
<path d="M330.296 147.771C326.496 146.181 326.552 138.85 326.552 138.85L330.011 137.812C330.146 139.8 330.347 143.523 330.296 147.771Z" fill="#021B2D"/>
<path d="M340.311 91.5981C340.311 91.5981 346.949 86.0074 353.199 73.6725C355.883 68.3747 352.202 69.8905 347.558 74.2429C341.389 80.0243 336.104 87.6475 336.104 87.6475L340.311 91.5981Z" fill="#F4C6BA"/>
<path d="M330.615 102.402C330.615 102.402 337.113 98.8379 341.444 89.325C345.776 79.8121 333.166 88.5339 327.725 95.662L330.615 102.402Z" fill="#F4C6BA"/>
<path d="M323.554 95.8779L333.231 88.9652C333.231 88.9652 338.805 94.1936 338.871 97.0034C338.871 97.0034 328.557 107.662 326.187 108.913L323.554 95.8779Z" fill="#263238"/>
<path d="M298.632 103.096C298.632 103.096 294.683 106.053 293.328 116.417C291.973 126.782 301.475 114.748 304.589 106.339L298.632 103.096Z" fill="#F4C6BA"/>
<path d="M306.521 96.9476C304.557 97.3115 300.489 99.0843 298.334 101.583C295.122 105.308 293.856 108.878 293.357 111.192C294.481 112.784 300.356 113.944 302.229 114.147L304.666 109.639C304.666 109.639 307.587 104.184 306.521 96.9476Z" fill="#263238"/>
<path d="M331.502 140.524C331.415 140.715 323.169 142.248 314.92 142.024C306.665 141.799 298.41 139.819 298.344 139.675C298.323 139.63 298.335 139.303 298.374 138.748C298.398 138.421 298.431 138.013 298.473 137.536C298.98 131.876 300.807 116.599 303.006 111.529C305.258 106.328 306.455 99.5157 306.422 96.9597C308.915 96.2429 315.067 96.7227 315.067 96.7227L318.658 96.9597C318.658 96.9597 321.096 96.4925 323.554 95.8779C327.208 106.194 329.954 131.405 331.074 137.746C331.155 138.196 331.224 138.601 331.284 138.951C331.442 139.897 331.529 140.467 331.502 140.524Z" fill="#FF715E"/>
<path d="M318.028 94.0798C318.115 95.2585 318.391 96.2397 318.658 96.9597C315.337 99.3145 312.232 96.9597 312.232 96.9597C312.367 96.6026 312.505 96.1739 312.622 95.682C312.742 95.169 312.838 94.587 312.877 93.945C312.967 92.475 312.73 91.2363 312.466 90.3362C312.388 90.0755 312.307 89.8443 312.232 89.6431H318.658C318.553 89.928 318.442 90.2698 318.339 90.6659C318.159 91.3616 318.009 92.2228 318 93.2066C317.998 93.4889 318.007 93.7796 318.028 94.0798Z" fill="#F4C6BA"/>
<path d="M318.338 90.6669C318.158 91.3637 318.01 92.2243 318 93.2066C316.511 94.1504 314.575 95.1843 312.622 95.682C312.743 95.1674 312.839 94.5855 312.878 93.9434C312.968 92.4761 312.731 91.2352 312.465 90.3362C312.642 90.0502 312.796 89.8127 312.907 89.6436C313.024 89.4677 313.093 89.3671 313.093 89.3671L314.21 89.6436L318.338 90.6669Z" fill="#EF9C9C"/>
<path d="M324.438 90.2256C320.757 93.274 310.539 93.274 306.858 90.2256C302.693 86.7758 301.072 74.1613 305.237 70.7116C308.918 67.6631 322.379 67.6631 326.06 70.7116C330.225 74.1613 328.603 86.7758 324.438 90.2256Z" fill="#F4C6BA"/>
<path d="M303.88 78.0945C303.574 77.423 301.531 77.2313 300.315 78.0945C299.1 78.9578 300.396 82.7383 301.693 83.2518C302.771 83.6789 303.88 83.7379 304.285 83.2518C304.69 82.7657 304.448 79.3386 303.88 78.0945Z" fill="#F4C6BA"/>
<path d="M327.159 78.0945C327.465 77.423 329.509 77.2313 330.724 78.0945C331.939 78.9578 330.643 82.7383 329.347 83.2518C328.268 83.6789 327.159 83.7379 326.754 83.2518C326.349 82.7657 326.592 79.3386 327.159 78.0945Z" fill="#F4C6BA"/>
<path d="M315.914 78.8872C315.849 79.4181 315.773 79.9027 315.695 80.1181C315.695 80.1181 313.289 79.4366 312.886 81.0888C312.424 82.9869 314.497 83.8449 314.497 83.8449" stroke="#6C341E" stroke-width="0.781172" stroke-miterlimit="10" stroke-linecap="round" stroke-linejoin="round"/>
<path d="M307.853 76.2064C307.853 76.2064 308.38 74.667 310.203 74.9914" stroke="#6C341E" stroke-width="0.781172" stroke-miterlimit="10" stroke-linecap="round" stroke-linejoin="round"/>
<path d="M323.793 76.0216C323.793 76.0216 323.267 74.4821 321.444 74.8065" stroke="#6C341E" stroke-width="0.781172" stroke-miterlimit="10" stroke-linecap="round" stroke-linejoin="round"/>
<path d="M309.616 79.6057C309.94 79.6057 310.203 79.0508 310.203 78.3664C310.203 77.6819 309.94 77.1271 309.616 77.1271C309.291 77.1271 309.028 77.6819 309.028 78.3664C309.028 79.0508 309.291 79.6057 309.616 79.6057Z" fill="#6C341E"/>
<path d="M322.474 78.3664C322.474 79.0505 322.211 79.6057 321.887 79.6057C321.562 79.6057 321.299 79.0511 321.299 78.3664C321.299 77.6817 321.562 77.1271 321.887 77.1271C322.211 77.1271 322.474 77.6822 322.474 78.3664Z" fill="#6C341E"/>
<path d="M302.291 79.7826C302.499 80.5641 302.4 81.2688 302.071 81.3568C301.741 81.4448 301.813 80.7232 301.605 79.9416C301.397 79.16 300.986 78.6144 301.317 78.5264C301.647 78.4385 302.082 79.001 302.291 79.7826Z" fill="#6C341E"/>
<path d="M328.616 79.7826C328.407 80.5641 328.506 81.2688 328.836 81.3568C329.166 81.4448 329.093 80.7232 329.302 79.9416C329.51 79.16 329.921 78.6144 329.59 78.5264C329.261 78.4385 328.824 79.001 328.616 79.7826Z" fill="#6C341E"/>
<path d="M310.855 82.6609C310.855 83.0633 309.806 83.3893 308.512 83.3893C307.218 83.3893 306.168 83.0633 306.168 82.6609C306.168 82.2585 307.218 81.9325 308.512 81.9325C309.806 81.9325 310.855 82.2585 310.855 82.6609Z" fill="#FF738F"/>
<path d="M325.32 82.6609C325.32 83.0633 324.271 83.3893 322.977 83.3893C321.683 83.3893 320.634 83.0633 320.634 82.6609C320.634 82.2585 321.683 81.9325 322.977 81.9325C324.271 81.9325 325.32 82.2585 325.32 82.6609Z" fill="#FF738F"/>
<path d="M316.237 131.999L309.931 126.887C309.703 126.702 309.668 126.366 309.853 126.137L319.414 114.345C319.599 114.116 319.935 114.081 320.164 114.266L326.469 119.378C326.698 119.564 326.733 119.9 326.548 120.128L316.987 131.921C316.802 132.15 316.466 132.185 316.237 131.999Z" fill="#3C4652"/>
<path d="M321.196 117.06L319.647 115.804C319.423 115.623 319.388 115.295 319.57 115.071C319.751 114.847 320.079 114.813 320.303 114.994L321.852 116.25C322.076 116.432 322.11 116.76 321.929 116.984C321.747 117.207 321.419 117.242 321.196 117.06Z" fill="#0F1B31"/>
<path d="M320.356 115.708C320.249 115.841 320.054 115.862 319.921 115.754C319.788 115.646 319.768 115.451 319.876 115.319C319.983 115.186 320.178 115.165 320.311 115.273C320.443 115.381 320.464 115.576 320.356 115.708Z" fill="#C8CBD4"/>
<path d="M296.903 115.655C296.903 115.655 303.849 117.178 315.225 125.04C320.11 128.417 316.152 128.84 309.994 127.229C301.815 125.089 294.761 123.987 293.402 119.778C292.891 118.199 296.903 115.655 296.903 115.655Z" fill="#F4C6BA"/>
<path d="M321.955 128.008C321.955 128.008 322.428 128.084 322.931 127.33C323.434 126.575 323.101 125.909 323.101 125.909C323.101 125.909 323.936 125.82 324.391 124.766C324.845 123.712 323.848 123.32 323.848 123.32C323.848 123.32 323.295 123.835 320.839 124.341C318.383 124.847 316.932 123.844 316.932 123.844C316.932 123.844 314.839 122.615 314.524 120.374L314.53 120.357C314.53 120.357 315.967 118.597 315.842 117.675C315.717 116.753 314.978 116.299 314.566 117.075C314.155 117.852 311.843 121.65 311.843 121.65L311.844 121.65C310.495 123.423 311.757 127.235 313.222 127.921C317.13 129.75 320.345 129.793 321.314 129.293C322.283 128.793 321.955 128.008 321.955 128.008Z" fill="#F4C6BA"/>
<path d="M321.887 71.4742C318.975 70.8806 315.533 73.5857 312.053 73.4466C308.137 73.2902 308.782 70.6041 307.072 71.904C305.175 73.3455 305.892 75.2431 305.218 76.2064C304.543 77.1697 304.259 78.6644 304.372 80.2044C304.485 81.7445 304.931 83.0153 304.118 82.6609C303.305 82.3064 302.819 77.5552 302.819 77.5552L302.808 73.2322C302.808 73.2322 303.38 69.3701 309.755 67.8327C316.129 66.2953 324.865 68.3199 326.552 69.5576C328.24 70.7948 328.88 75.3911 328.88 75.3911L328.475 77.5279C328.475 77.5279 327.902 81.706 327.49 82.3059C327.078 82.9058 326.135 83.5383 326.365 83.1307C326.595 82.723 326.477 76.7573 326.552 75.576C326.628 74.3946 325.608 72.2326 321.887 71.4742Z" fill="#00182E"/>
<path d="M312.465 86.4888C312.595 86.6705 313.485 87.8676 315.088 88.0061C317.064 88.1768 318.273 86.5778 318.338 86.4888" stroke="#6C341E" stroke-width="0.781172" stroke-miterlimit="10" stroke-linecap="round" stroke-linejoin="round"/>
<path d="M302.914 76.2064C302.914 76.2064 301.99 75.5201 301.192 72.587C300.394 69.6534 302.596 69.9794 303.405 68.4257C304.214 66.872 303.506 64.9502 305.428 63.5339C307.35 62.1177 308.301 63.9816 310.203 62.5949C312.104 61.2076 315.469 58.3751 318.338 60.3986C321.208 62.4216 321.248 64.6974 322.619 64.394C323.99 64.0906 325.659 63.5345 327.075 64.7479C328.491 65.9619 327.929 68.1872 328.488 68.7433C329.048 69.2995 330.261 69.1984 330.767 70.8674C331.272 72.5365 329.777 74.4536 328.881 75.3916C327.985 76.3296 325.32 70.8674 325.32 70.8674L305.237 70.7121L302.914 76.2064Z" fill="#021B2D"/>
<path d="M306.405 97.6634C306.389 97.9952 306.358 98.3691 306.31 98.7747C298.715 100.86 296.614 109.366 296.077 112.742C295.724 112.621 295.387 112.489 295.076 112.352C295.724 108.566 298.115 99.6805 306.405 97.6634Z" fill="white"/>
<path d="M350.011 73.0537C350.011 73.0537 348.915 71.9756 348.533 70.4192C348 68.2488 346.681 67.3903 346.958 66.812C347.32 66.0546 348.383 66.7878 348.615 66.8884C349.035 67.0711 349.843 68.3146 350.304 68.7318C350.6 68.9993 352.144 69.3875 352.474 71.0149C352.805 72.6429 350.011 73.0537 350.011 73.0537Z" fill="#F4C6BA"/>
<path d="M350.077 69.1873C350.077 69.1873 351.512 65.2335 351.911 64.0738C352.31 62.914 352.751 62.3842 353.367 62.686C354.346 63.1658 350.836 71.3151 350.836 71.3151L350.077 69.1873Z" fill="#F4C6BA"/>
<path d="M352.574 68.145C352.574 68.145 353.625 65.1208 354.025 63.9611C354.424 62.8013 354.865 62.2715 355.481 62.5733C356.46 63.0531 353.334 70.2723 353.334 70.2723L352.574 68.145Z" fill="#F4C6BA"/>
<path d="M353.88 70.1702C353.88 70.1702 354.932 67.146 355.331 65.9862C355.73 64.8265 356.171 64.2966 356.787 64.5984C357.766 65.0782 354.64 72.2974 354.64 72.2974L353.88 70.1702Z" fill="#F4C6BA"/>
<path d="M352.341 72.804C352.341 72.804 355.754 69.6666 356.359 68.7438C356.963 67.8211 357.674 67.2971 357.935 67.8559C358.876 69.8757 352.533 74.826 352.533 74.826L352.341 72.804Z" fill="#F4C6BA"/>
<path d="M351.661 66.4639L355.415 68.5485L354.935 71.59L352.03 73.8764L350.731 71.2356L351.661 66.4639Z" fill="#F4C6BA"/>
<path d="M169.587 35.3076C179.337 35.3076 187.241 27.4037 187.241 17.6538C187.241 7.90388 179.337 0 169.587 0C159.837 0 151.933 7.90388 151.933 17.6538C151.933 27.4037 159.837 35.3076 169.587 35.3076Z" fill="#FF715E"/>
<path d="M291.504 181.074V183.875C291.504 186.938 289.022 189.421 285.958 189.421H80.2287C77.1687 189.421 74.6828 186.94 74.6828 183.875V181.074C74.6828 179.969 75.5792 179.072 76.6852 179.072H289.503C290.608 179.072 291.504 179.969 291.504 181.074Z" fill="#FF715E"/>
<path d="M288.869 155.319V179.072H77.3178V154.397C77.3178 152.159 78.6661 150.142 80.7307 149.283L102.598 140.161H231.814L284.335 149.868C286.963 150.352 288.869 152.643 288.869 155.319Z" fill="#FF715E"/>
<path d="M163.695 145.721V174.579" stroke="#F3A241" stroke-width="1.05336" stroke-miterlimit="10"/>
<path d="M117.116 209.736C130.29 209.736 140.969 199.056 140.969 185.882C140.969 172.709 130.29 162.029 117.116 162.029C103.942 162.029 93.2625 172.709 93.2625 185.882C93.2625 199.056 103.942 209.736 117.116 209.736Z" fill="#3C4652"/>
<path d="M117.116 204.607C127.457 204.607 135.841 196.224 135.841 185.882C135.841 175.541 127.457 167.157 117.116 167.157C106.774 167.157 98.3906 175.541 98.3906 185.882C98.3906 196.224 106.774 204.607 117.116 204.607Z" fill="#263238"/>
<path d="M117.116 201.507C125.745 201.507 132.741 194.512 132.741 185.882C132.741 177.253 125.745 170.257 117.116 170.257C108.486 170.257 101.491 177.253 101.491 185.882C101.491 194.512 108.486 201.507 117.116 201.507Z" fill="#E0E1E2"/>
<path d="M120.172 185.882C120.172 187.57 118.804 188.939 117.116 188.939C115.428 188.939 114.059 187.57 114.059 185.882C114.059 184.194 115.428 182.826 117.116 182.826C118.804 182.826 120.172 184.194 120.172 185.882Z" fill="#263238"/>
<path d="M116.513 177.891V172.657C109.48 172.972 103.876 178.772 103.876 185.882H109.094C109.094 181.655 112.365 178.2 116.513 177.891Z" fill="#263238"/>
<path d="M245.329 209.736C258.503 209.736 269.183 199.056 269.183 185.882C269.183 172.709 258.503 162.029 245.329 162.029C232.155 162.029 221.476 172.709 221.476 185.882C221.476 199.056 232.155 209.736 245.329 209.736Z" fill="#3C4652"/>
<path d="M263.737 189.285C265.62 179.116 258.902 169.346 248.733 167.464C238.564 165.582 228.795 172.3 226.913 182.469C225.03 192.637 231.748 202.407 241.917 204.289C252.086 206.171 261.855 199.453 263.737 189.285Z" fill="#263238"/>
<path d="M245.329 201.507C253.959 201.507 260.954 194.512 260.954 185.882C260.954 177.253 253.959 170.257 245.329 170.257C236.7 170.257 229.704 177.253 229.704 185.882C229.704 194.512 236.7 201.507 245.329 201.507Z" fill="#E0E1E2"/>
<path d="M245.329 188.938C243.641 188.938 242.273 187.57 242.273 185.882C242.273 184.194 243.641 182.826 245.329 182.826C247.017 182.826 248.386 184.194 248.386 185.882C248.386 187.57 247.017 188.938 245.329 188.938Z" fill="#263238"/>
<path d="M253.321 185.279H258.555C258.239 178.247 252.44 172.642 245.329 172.642V177.86C249.556 177.86 253.012 181.131 253.321 185.279Z" fill="#263238"/>
<path d="M102.598 140.161H231.814L208.152 108.769C206.459 106.523 203.81 105.203 200.998 105.203H128.738C125.598 105.203 122.688 106.847 121.066 109.535L102.598 140.161Z" fill="#FF715E"/>
<path d="M165.185 140.161H222.695L202.372 113.2C200.919 111.271 198.643 110.137 196.228 110.137H165.185V140.161Z" fill="#263238"/>
<path d="M162.204 110.137H134.168C131.471 110.137 128.971 111.549 127.579 113.858L111.718 140.161H162.204V110.137Z" fill="#263238"/>
<path d="M177.697 148.53H170.189C169.135 148.53 168.28 147.676 168.28 146.621V145.721H179.605V146.621C179.606 147.676 178.751 148.53 177.697 148.53Z" fill="#FF715E"/>
<path d="M157.332 148.53H149.823C148.769 148.53 147.915 147.676 147.915 146.621V145.721H159.24V146.621C159.24 147.676 158.386 148.53 157.332 148.53Z" fill="#FF715E"/>
<path d="M206.881 140.161H197.223L183.002 110.137H192.66L206.881 140.161Z" fill="white"/>
<path d="M192.578 140.161H188.6L174.38 110.137H178.358L192.578 140.161Z" fill="white"/>
<path d="M160.451 140.161H156.473L142.252 110.137H146.23L160.451 140.161Z" fill="white"/>
<path d="M154.039 140.161H152.042L137.822 110.137H139.819L154.039 140.161Z" fill="white"/>
<path d="M281.628 159.066C280.713 161.682 276.994 162.762 273.322 161.478C269.649 160.194 267.414 157.032 268.328 154.416C269.243 151.8 272.962 150.72 276.634 152.004C280.307 153.288 282.543 156.45 281.628 159.066Z" fill="white"/>
<path d="M175.781 162.453H169.744V168.49H175.781V162.453Z" fill="white"/>
<path d="M181.81 168.482H175.773V174.519H181.81V168.482Z" fill="white"/>
<path d="M187.847 162.453H181.81V168.49H187.847V162.453Z" fill="white"/>
<path d="M193.876 168.482H187.84V174.519H193.876V168.482Z" fill="white"/>
<path d="M199.914 162.453H193.877V168.49H199.914V162.453Z" fill="white"/>
<path d="M205.943 168.482H199.906V174.519H205.943V168.482Z" fill="white"/>
<path d="M211.98 162.453H205.943V168.49H211.98V162.453Z" fill="white"/>
<path d="M218.009 168.482H211.973V174.519H218.009V168.482Z" fill="white"/>
<path d="M87.233 162.453H81.1962V168.49H87.233V162.453Z" fill="white"/>
<path d="M93.2624 168.482H87.2256V174.519H93.2624V168.482Z" fill="white"/>
<path d="M99.2998 162.453H93.263V168.49H99.2998V162.453Z" fill="white"/>
<path d="M141.878 162.453H135.841V168.49H141.878V162.453Z" fill="white"/>
<path d="M147.907 168.482H141.87V174.519H147.907V168.482Z" fill="white"/>
<path d="M153.944 162.453H147.907V168.49H153.944V162.453Z" fill="white"/>
<path d="M159.973 168.482H153.937V174.519H159.973V168.482Z" fill="white"/>
<path d="M169.602 101.928H157.788C156.639 101.928 155.707 102.86 155.707 104.01V105.203H171.682V104.01C171.683 102.86 170.751 101.928 169.602 101.928Z" fill="#FF715E"/>
<path d="M167.08 101.928H160.31V93.3852C160.31 91.516 161.826 90.0007 163.695 90.0007C165.564 90.0007 167.079 91.516 167.079 93.3852V101.928H167.08Z" fill="#FF715E"/>
</svg>
